<svg id="Слой_1" data-name="Слой 1" xmlns="http://www.w3.org/2000/svg" viewBox="0 0 494 334"><defs><style>.cls-1{fill:#383838;fill-rule:evenodd;}.cls-2{fill:none;stroke:#000001;stroke-width:0;}</style></defs><title>Монтажная область 1</title><path class="cls-1" d="M246.3,30C126.84,30,30,91.7,30,167.82s96.84,137.82,216.3,137.82,216.3-61.7,216.3-137.82S365.76,30,246.3,30ZM86,113.27c6,24.9,49.25,45.57,107.85,53.44q0,1.75,0,3.52c0,59.05,17,108.59,39.9,122.06-95.05-4.55-170-57-170-121,0-21,8.08-40.79,22.3-58ZM215.38,169c10,.76,20.34,1.16,30.92,1.16s20.91-.4,30.92-1.16c-1.42,43.8-14.72,78.13-30.92,78.13S216.8,212.75,215.38,169Zm83.34-2.25c59.93-8,103.85-29.48,108.19-55.13,15.11,17.63,23.73,38,23.73,59.72,0,64.45-76,117.16-172,121.08,23-13.34,40-63,40-122.15q0-1.77,0-3.52ZM265,52.82c59.91,3,105.83,20.49,105.83,41.55,0,17.2-30.63,32-74.49,38.48C291.61,96,280,66.5,265,52.82Zm10.85,82.37c-9.49.78-19.4,1.19-29.6,1.19s-20.11-.41-29.6-1.19c4-34.73,15.73-59.89,29.6-59.89s25.61,25.17,29.6,59.89Zm-79.68-2.34c-43.86-6.5-74.49-21.29-74.49-38.48,0-7.11,5.23-13.8,14.46-19.67A217.66,217.66,0,0,1,171.32,60.8a291.64,291.64,0,0,1,56.24-8C212.64,66.5,201,96,196.22,132.85Z"/><path class="cls-2" d="M246.3,30C126.84,30,30,91.7,30,167.82s96.84,137.82,216.3,137.82,216.3-61.7,216.3-137.82S365.76,30,246.3,30ZM86,113.27c6,24.9,49.25,45.57,107.85,53.44q0,1.75,0,3.52c0,59.05,17,108.59,39.9,122.06-95.05-4.55-170-57-170-121,0-21,8.08-40.79,22.3-58ZM215.38,169c10,.76,20.34,1.16,30.92,1.16s20.91-.4,30.92-1.16c-1.42,43.8-14.72,78.13-30.92,78.13S216.8,212.75,215.38,169Zm83.34-2.25c59.93-8,103.85-29.48,108.19-55.13,15.11,17.63,23.73,38,23.73,59.72,0,64.45-76,117.16-172,121.08,23-13.34,40-63,40-122.15q0-1.77,0-3.52ZM265,52.82c59.91,3,105.83,20.49,105.83,41.55,0,17.2-30.63,32-74.49,38.48C291.61,96,280,66.5,265,52.82Zm10.85,82.37c-9.49.78-19.4,1.19-29.6,1.19s-20.11-.41-29.6-1.19c4-34.73,15.73-59.89,29.6-59.89s25.61,25.17,29.6,59.89Zm-79.68-2.34c-43.86-6.5-74.49-21.29-74.49-38.48,0-7.11,5.23-13.8,14.46-19.67A217.66,217.66,0,0,1,171.32,60.8a291.64,291.64,0,0,1,56.24-8C212.64,66.5,201,96,196.22,132.85Z"/></svg>