<?xml version="1.0" encoding="utf-8"?>
<!-- Svg Vector Icons : http://www.onlinewebfonts.com/icon -->
<!DOCTYPE svg PUBLIC "-//W3C//DTD SVG 1.1//EN" "http://www.w3.org/Graphics/SVG/1.1/DTD/svg11.dtd">
<svg version="1.1" xmlns="http://www.w3.org/2000/svg" xmlns:xlink="http://www.w3.org/1999/xlink" x="0px" y="0px" viewBox="0 0 1000 1000" enable-background="new 0 0 1000 1000" xml:space="preserve">
<metadata> Svg Vector Icons : http://www.onlinewebfonts.com/icon </metadata>
<g><g transform="translate(0.000000,512.000000) scale(0.100000,-0.100000)"><path d="M1624.4,4999.7c-109.3-40.3-185.9-103.5-241.5-201.3l-53.7-90.1V3489.2V2270.1l57.5-93.9c36.4-57.5,93.9-115,151.4-151.4l93.9-57.5h454.3h454.3l93.9,57.5c57.5,36.4,115,93.9,151.4,151.4l57.5,93.9l5.7,458.1l5.8,456.2h628.7h626.8l21.1-80.5c51.7-191.7,256.9-427.4,458.1-525.2l103.5-49.8V71.5V-2384l-122.7-63.2c-149.5-76.7-316.3-245.4-389.1-394.9l-51.8-107.3h-636.4h-638.3l-5.8,456.2l-5.7,458.1l-57.5,93.9c-36.4,57.5-93.9,115-151.4,151.4l-93.9,57.5h-454.3h-454.3l-93.9-57.5c-57.5-36.4-115-93.9-151.4-151.4l-57.5-93.9v-1221v-1221l57.5-93.9c36.4-57.5,93.9-115,151.4-151.4l93.9-57.5h454.3h454.3l93.9,57.5c57.5,36.4,115,93.9,151.4,151.4l57.5,93.9l5.7,458.1l5.8,456.2h636.4h636.4l63.3-122.7c38.3-72.8,109.3-166.7,176.4-230c279.9-268.4,682.4-329.7,1037-162.9c149.5,70.9,352.7,272.2,417.9,416l46,99.7h638.3h638.3l5.7-456.2l5.8-458.1l57.5-93.9c36.4-57.5,93.9-115,151.4-151.4l93.9-57.5h454.3h454.3l93.9,57.5c57.5,36.4,115,93.9,151.4,151.4l57.5,93.9v1221v1221l-57.5,93.9c-36.4,57.5-93.9,115-151.4,151.4l-93.9,57.5h-454.3h-454.3l-93.9-57.5c-57.5-36.4-115-93.9-151.4-151.4l-57.5-93.9l-5.8-458.1l-5.7-456.2h-636.4h-636.4l-57.5,111.2c-72.8,139.9-256.9,323.9-396.8,396.8l-111.2,57.5V71.5v2457.4l111.2,53.7c151.4,72.8,327.8,253,402.5,412.1c34.5,70.9,61.3,141.8,61.3,159.1c0,26.8,65.2,30.7,630.6,30.7h632.6l5.7-456.2l5.8-458.1l57.5-93.9c36.4-57.5,93.9-115,151.4-151.4l93.9-57.5h454.3h454.3l93.9,57.5c57.5,36.4,115,93.9,151.4,151.4l57.5,93.9v1221v1221l-57.5,93.9c-36.4,57.5-93.9,115-151.4,151.4l-93.9,57.5h-454.3h-454.3l-93.9-57.5c-57.5-36.4-115-93.9-151.4-151.4l-57.5-93.9l-5.8-458.1l-5.7-456.2h-659.4h-657.5l-47.9,82.4c-65.2,109.3-233.9,266.5-354.6,327.8c-274.1,138-569.3,141.8-835.7,7.7c-134.2-67.1-302.9-220.4-370-335.4l-47.9-82.4h-657.5h-659.4l-5.8,456.2l-5.7,458.1l-57.5,93.9c-36.4,57.5-93.9,115-151.4,151.4l-93.9,57.5l-423.6,3.8C1802.7,5022.7,1676.2,5016.9,1624.4,4999.7z"/></g></g>
</svg>